# xmcd
#
# Track frame offsets:
#	150
#	18751
#	38186
#	58540
#	81808
#	103231
#	122475
#	143802
#	160963
#	186778
#
# Disc length: 2750 seconds
#
# Revision: 1
# Processed by: cddbd v1.4PL0 Copyright (c) Steve Scherf et al.
# Submitted via: audiograbber 1.82.02
#
DISCID=7c0abc0a
DTITLE=Claire Vezina - Alambic
DYEAR=2003
DGENRE=Blues
TTITLE0=Si loin... d'ici
TTITLE1=Seul le coeur compte
TTITLE2=Malobiannah
TTITLE3=Dans les Appalaches
TTITLE4=Qu'un jeu
TTITLE5=Big Jack (C'est mardi gras)
TTITLE6=Tellemend froid ce soir
TTITLE7=Camée Léone
TTITLE8=Alambic
TTITLE9=Encore un blues
EXTD=
EXTT0=
EXTT1=
EXTT2=
EXTT3=
EXTT4=
EXTT5=
EXTT6=
EXTT7=
EXTT8=
EXTT9=
PLAYORDER=
